<?xml version="1.0" encoding="utf-8"?>
<!-- Generator: Adobe Illustrator 17.0.0, SVG Export Plug-In . SVG Version: 6.00 Build 0)  -->
<!DOCTYPE svg PUBLIC "-//W3C//DTD SVG 1.1//EN" "http://www.w3.org/Graphics/SVG/1.1/DTD/svg11.dtd">
<svg version="1.1" id="Layer_1" xmlns="http://www.w3.org/2000/svg" xmlns:xlink="http://www.w3.org/1999/xlink" x="0px" y="0px"
	 width="518px" height="110px" viewBox="0 0 518 110" enable-background="new 0 0 518 110" xml:space="preserve">
<g>
	<path d="M417.718,11.789c-3.401,2.715-6.803,5.43-10.202,8.145c1.731,2.652,3.427,5.326,5.068,8.039
		c0.821,1.358-1.391,2.429-2.204,1.084c-1.548-2.561-3.15-5.086-4.782-7.59c-3.312,2.645-6.624,5.289-9.936,7.932
		c-1.235,0.987-2.841-0.878-1.602-1.868c3.396-2.712,6.791-5.422,10.188-8.133c-1.994-3-4.047-5.96-6.165-8.878
		c-0.925-1.275,0.927-2.895,1.858-1.61c2.136,2.945,4.208,5.933,6.222,8.959c3.319-2.648,6.635-5.298,9.954-7.947
		C417.351,8.936,418.958,10.801,417.718,11.789z"/>
	<path d="M405.52,47.548c-0.745-4.57-1.941-8.967-3.572-13.295c-0.36-0.956-1.576-0.784-2.113-0.157
		c-3.268,3.807-5.865,7.943-7.934,12.516c-0.537,1.188,1.069,2.063,1.957,1.349c1.16-0.935,2.217-1.934,3.195-2.987
		c-5.65,18.113-11.119,40.382-31.563,44.569c-18.285,3.747-28.596-16.672-36.528-29.656c-6.804-11.137-14.027-23.201-25.401-30.193
		c-12.151-7.47-27.11-6.954-39.454-0.209c-12.451,6.803-22.415,19.291-22.141,33.912c-7.768-0.451-14.467,5.201-15.879,12.972
		c-1.189,6.548,2.131,17.149,9.745,16.835c-0.084,0.514,0.135,1.043,0.792,1.212c8.615,2.235,16.817-3.263,18.548-11.979
		c1.579-7.948-2.613-16.805-10.759-18.68c-0.837-19.889,19.634-36.663,38.435-37.129c31.071-0.769,40.83,34.521,57.257,54.259
		c4.909,5.897,11.161,10.819,19.038,11.489c7.349,0.626,14.425-2.4,20.041-7.005c13.657-11.202,16.505-29.494,22.083-45.413
		c0.774,2.642,1.396,5.319,1.843,8.068C403.368,49.594,405.776,49.114,405.52,47.548z M242.617,65.942
		c0.161,0.068,0.339,0.094,0.523,0.083c0.25,0.041,0.5,0.078,0.75,0.135c15.113,3.437,9.925,28.593-5.095,26.209
		c0.647-0.831,0.112-2.363-1.118-1.989c-8.958,2.718-10.582-10.769-8.39-16.359C231.437,68.545,236.894,65.238,242.617,65.942z"/>
	<path fill="#261DDD" d="M230.02,83.5c-0.143-0.759-0.201-1.54-0.217-2.311c-0.179-8.95,4.435-14.908,13.641-12.747
		c4.74,1.113,7.494,7.082,7.471,11.544c-0.015,2.999-0.92,6.296-3.453,7.883c-4.12,2.58-13.855,2.879-16.611-1.993
		C230.437,85.139,230.177,84.333,230.02,83.5z"/>
</g>
<g>
	<g>
		<path d="M109.009,42.288c-1.217-11.217-5.211-24.365-16.358-29.353c-12.751-5.708-26.416,0.232-38.099,5.681
			c-1.606,0.749-0.207,3.128,1.391,2.383c1.154-0.537,2.338-1.087,3.542-1.631c2.383,25.191-2.451,50.408-0.667,75.614
			c-0.362,0.545-0.267,1.312,0.137,1.781c0.047,0.557,0.075,1.114,0.13,1.669c0.167,1.751,2.928,1.769,2.758,0
			c-0.057-0.602-0.09-1.207-0.14-1.809C84.27,88.891,111.887,68.843,109.009,42.288z M89.583,77.247
			c-8.146,7.382-17.744,12.903-28.097,16.515c-1.571-25.189,3.268-50.388,0.657-75.562c9.738-4.164,20.697-7.36,30.505-2.221
			c10.392,5.443,13.955,20.367,13.87,31.192C106.421,59.458,98.277,69.373,89.583,77.247z"/>
		<path d="M129.989,58.558c-4.072-1.624-9.588,0.357-12.988,2.556c-5.106,3.3-8.379,8.744-9.633,14.627
			c-2.338,10.979,0.637,25.079,13.87,26.116c12.748,0.999,22.396-10.485,23.745-22.329
			C146.117,69.605,140.124,58.871,129.989,58.558z M141.855,81.646c-1.976,9.053-9.266,17.52-19.133,17.51
			c-12.216-0.012-14.777-12.948-12.693-22.681c0.944-4.407,3.028-8.571,6.473-11.546c2.038-1.761,5.533-3.767,8.811-4.169
			c0.252,0.552,0.819,0.972,1.579,0.812c0.824-0.175,1.611-0.267,2.373-0.295c0.307,0.145,0.605,0.312,0.887,0.52
			c0.687,0.505,1.359,0.212,1.719-0.337C140.104,63.015,143.614,73.595,141.855,81.646z"/>
		<path d="M167.376,90.013c-0.055-0.072-0.097-0.15-0.162-0.217c-1.586-1.644-3.73-0.597-4.617,1.089
			c-0.832,1.084-1.511,2.278-1.322,3.715c0.197,1.501,1.361,2.805,2.955,2.78c1.689-0.027,2.94-1.394,3.388-2.925
			c0.645-0.632,1.017-1.539,0.822-2.641C168.313,91.089,167.918,90.45,167.376,90.013z"/>
		<path d="M173.694,27.736c-1.287-2.283-4.844-2.261-7.147-2.381c-0.759-0.04-1.359,0.665-1.379,1.379
			c-0.472,16.228-0.595,32.461-0.367,48.694c0.015,0.999,0.897,1.436,1.659,1.312c0.165,1.691,2.7,1.691,2.748-0.07
			c0.32-12.039,1.317-24.045,3.13-35.953c0.402-2.638,0.847-5.271,1.314-7.899C173.939,31.211,174.563,29.277,173.694,27.736z
			 M167.893,28.188c0.117,0.01,0.237,0.025,0.355,0.037c-0.087,0.167-0.155,0.352-0.175,0.56c-0.05,0.502-0.132,0.982-0.227,1.456
			C167.861,29.557,167.873,28.873,167.893,28.188z M167.673,37.411c0.197,0.15,0.432,0.227,0.68,0.24
			c-0.295,1.484-0.607,2.878-0.749,3.957C167.626,40.209,167.648,38.81,167.673,37.411z"/>
	</g>
</g>
</svg>
